<?xml version="1.0" encoding="UTF-8" standalone="no"?>
<svg
   xmlns:dc="http://purl.org/dc/elements/1.1/"
   xmlns:cc="http://creativecommons.org/ns#"
   xmlns:rdf="http://www.w3.org/1999/02/22-rdf-syntax-ns#"
   xmlns:svg="http://www.w3.org/2000/svg"
   xmlns="http://www.w3.org/2000/svg"
   height="144"
   width="144"
   version="1.1"
   x="0px"
   y="0px"
   viewBox="0 0 48 48"
   enable-background="new 0 0 100 100"
   xml:space="preserve"
   id="svg4"
   style="fill:#0296cc"><metadata
   id="metadata10"><rdf:RDF><cc:Work
       rdf:about=""><dc:format>image/svg+xml</dc:format><dc:type
         rdf:resource="http://purl.org/dc/dcmitype/StillImage" /><dc:title></dc:title></cc:Work></rdf:RDF></metadata><defs
   id="defs8" />
<path
   d="m 18.002974,35.840446 c 4.272965,0 8.198481,-1.503482 11.28885,-3.998833 l 0.676831,0.676832 0.338947,-0.340541 4.080114,4.080647 -0.340009,0.340009 11.403602,11.402009 2.714765,-2.714765 -11.402009,-11.403602 -0.340009,0.34001 -4.080646,-4.080114 0.340009,-0.34001 -0.675238,-0.67577 C 34.504064,26.035419 36.00542,22.110965 36.00542,17.83747 36.00542,7.9113159 27.930192,-0.16497364 18.003505,-0.16497364 8.0757584,-0.16497364 0,7.9113159 0,17.83747 0,27.764687 8.0762895,35.840446 18.002974,35.840446 Z m 0,-33.1259637 c 8.338205,0 15.122457,6.784785 15.122457,15.1224557 0,3.477661 -1.191094,6.675877 -3.172714,9.234447 l -0.511077,-0.510546 -2.714763,2.716359 0.510545,0.508951 c -2.557509,1.981087 -5.756785,3.173776 -9.234448,3.173776 -8.3387331,0 -15.1224555,-6.784784 -15.1224555,-15.122987 C 2.8799872,9.4992673 9.6642409,2.7144823 18.002974,2.7144823 Z"
   id="path2"
   style="fill:#0296cc;stroke-width:0.53126502" />
</svg>